# xmcd
#
# Track frame offsets:
#	150
#	21736
#	47298
#	65534
#	88298
#	116763
#	135575
#	150692
#	169058
#	186421
#	204917
#	226746
#	261462
#
# Disc length: 3844 seconds
#
# Revision: 0
# Processed by: cddbd v1.5.2PL0 Copyright (c) Steve Scherf et al.
# Submitted via: EZCDAudioConverter 5.0.3.2
#
DISCID=b70f020d
DTITLE=Ann Nesby - The Lula Lee Project
DYEAR=2009
DGENRE=Gospel
TTITLE0=I Found A Place
TTITLE1=Too Late
TTITLE2=Sky Is The Limit
TTITLE3=Praises (Go Up)
TTITLE4=I Trust You Lord
TTITLE5=Pressure Makes Diamonds
TTITLE6=Say Jesus
TTITLE7=Went Through Hell
TTITLE8=Higher
TTITLE9=Thinkin' About You
TTITLE10=Sow Love
TTITLE11=So Much Joy
TTITLE12=Data Track
EXTD=
EXTT0=
EXTT1=
EXTT2=
EXTT3=
EXTT4=
EXTT5=
EXTT6=
EXTT7=
EXTT8=
EXTT9=
EXTT10=
EXTT11=
EXTT12=
PLAYORDER=
